<?xml version="1.0" encoding="iso-8859-1"?>
<!-- Generator: Adobe Illustrator 18.0.0, SVG Export Plug-In . SVG Version: 6.00 Build 0)  -->
<!DOCTYPE svg PUBLIC "-//W3C//DTD SVG 1.1//EN" "http://www.w3.org/Graphics/SVG/1.1/DTD/svg11.dtd">
<svg version="1.1" id="Capa_1" xmlns="http://www.w3.org/2000/svg" xmlns:xlink="http://www.w3.org/1999/xlink" x="0px" y="0px"
	 viewBox="0 0 236 236" style="enable-background:new 0 0 100 100; fill:hsl(317 100% 54%);" xml:space="preserve">
<g>
	<path d="M234.316,96.115c-6.053-35.914-28.66-64.925-58.376-80.857c-0.294-0.299-0.676-0.546-1.209-0.687
		c-24.417-12.71-53.488-16.642-82.201-8.208C37.463,22.536-2.608,71.239,0.498,128.274c-0.432,0.708-0.633,1.604-0.399,2.67
		c0.364,1.656,0.726,3.744,1.219,5.907c0.283,2.185,0.477,4.356,0.889,6.56c10.862,58.071,71.613,100.052,129.532,88.892
		c0.498,0.469,1.177,0.757,2.025,0.593C198.434,220.451,245.647,163.348,234.316,96.115z M84.606,16.413
		c3.256-1.234,6.543-2.223,9.835-3.131c-4.672,10.325-5,23.199-2.742,34.256c-4.116,1.014-7.901,3.082-10.896,5.881
		c-15.813-6.242-35.394-5.682-50.501,2.32C44.017,38.484,62.754,24.698,84.606,16.413z M135.964,227.574
		c-0.22-0.068-0.368-0.242-0.638-0.221c-42.245,3.288-85.519-10.765-109.755-44.015c8.505-41.947,27.494-72.326,59.432-99.258
		c1.775,0.772,3.713,1.165,5.705,1.343c-4.998,29.367-0.57,59.583,11.649,86.942c5.622,12.588,23.378,49.847,40.765,53.098
		C140.749,226.195,138.393,226.971,135.964,227.574z M228.349,131.992c-24.01-37.802-64.525-62.978-109.296-64.433
		c2.619-4.671,3.726-9.818,1.966-14.908c4.887-9.194,11.134-17.02,20.026-22.957c9.695-6.474,19.027-7.958,29.938-9.376
		c27.843,13.491,49.652,38.848,56.516,72.535C230.255,106.378,230.335,119.505,228.349,131.992z"/>
</g>
<g>
</g>
<g>
</g>
<g>
</g>
<g>
</g>
<g>
</g>
<g>
</g>
<g>
</g>
<g>
</g>
<g>
</g>
<g>
</g>
<g>
</g>
<g>
</g>
<g>
</g>
<g>
</g>
<g>
</g>
</svg>
